<?xml version="1.0" encoding="UTF-8" standalone="no"?><!-- Generator: Gravit.io --><svg xmlns="http://www.w3.org/2000/svg" xmlns:xlink="http://www.w3.org/1999/xlink" style="isolation:isolate" viewBox="0 0 170.083 77.04" width="170.083pt" height="77.04pt"><defs><clipPath id="_clipPath_iEU1aQHxetaPLhAUbcGHTeeFa3ZLeWOi"><rect width="170.083" height="77.04"/></clipPath></defs><g clip-path="url(#_clipPath_iEU1aQHxetaPLhAUbcGHTeeFa3ZLeWOi)"><path d=" M 170.083 0 L 143.443 77.04 L 130.483 77.04 L 116.923 35.64 L 116.083 35.64 L 102.043 77.04 L 88.963 77.04 L 65.683 0 L 77.923 0 L 79.243 8.28 L 95.803 63.84 L 96.763 63.84 L 111.883 19.2 L 105.763 0 L 118.363 0 L 120.283 9.48 L 137.083 63.84 L 138.043 63.84 L 156.643 9 L 158.563 0 L 170.083 0 Z " fill="rgb(0,0,0)"/><path d=" M 34.357 0 L 34.357 0 Q 45.849 0 54.643 5.159 L 54.643 5.159 L 52.415 15.83 L 51.243 16.182 L 51.243 16.182 Q 43.386 10.084 33.888 10.084 L 33.888 10.084 L 33.888 10.084 Q 23.569 10.084 18.117 17.061 L 18.117 17.061 L 18.117 17.061 Q 12.664 24.038 12.664 37.875 L 12.664 37.875 L 12.664 37.875 Q 12.664 52.064 18.175 59.451 L 18.175 59.451 L 18.175 59.451 Q 23.687 66.838 33.888 66.838 L 33.888 66.838 L 33.888 66.838 Q 38.813 66.838 43.679 65.138 L 43.679 65.138 L 43.679 65.138 Q 48.546 63.438 52.65 60.389 L 52.65 60.389 L 53.822 61.093 L 52.884 72.115 L 52.884 72.115 Q 42.8 77.04 32.95 77.04 L 32.95 77.04 L 32.95 77.04 Q 17.12 77.04 8.56 67.19 L 8.56 67.19 L 8.56 67.19 Q 0 57.34 0 39.165 L 0 39.165 L 0 39.165 Q 0 20.403 8.97 10.202 L 8.97 10.202 L 8.97 10.202 Q 17.941 0 34.357 0 L 34.357 0 Z " fill="rgb(0,0,0)"/></g></svg>