<?xml version="1.0" encoding="UTF-8" standalone="no"?><!-- Generator: Gravit.io --><svg xmlns="http://www.w3.org/2000/svg" xmlns:xlink="http://www.w3.org/1999/xlink" style="isolation:isolate" viewBox="0 0 179.083 89.04" width="179.083pt" height="89.04pt"><defs><clipPath id="_clipPath_xpoSBk7M1JYB1dYYQQYIITEYa9BVJNy3"><rect width="179.083" height="89.04"/></clipPath></defs><g clip-path="url(#_clipPath_xpoSBk7M1JYB1dYYQQYIITEYa9BVJNy3)"><mask id="_mask_mzKNz47D7ysd2y8DvnrlJGzkrZmOmWwQ" x="-200%" y="-200%" width="400%" height="400%"><rect x="-200%" y="-200%" width="400%" height="400%" style="fill:white;"/><path d=" M 173.083 6 L 146.443 83.04 L 133.483 83.04 L 119.923 41.64 L 119.083 41.64 L 105.043 83.04 L 91.963 83.04 L 68.683 6 L 80.923 6 L 82.243 14.28 L 98.803 69.84 L 99.763 69.84 L 114.883 25.2 L 108.763 6 L 121.363 6 L 123.283 15.48 L 140.083 69.84 L 141.043 69.84 L 159.643 15 L 161.563 6 L 173.083 6 Z " fill="black" stroke="none"/></mask><path d=" M 173.083 6 L 146.443 83.04 L 133.483 83.04 L 119.923 41.64 L 119.083 41.64 L 105.043 83.04 L 91.963 83.04 L 68.683 6 L 80.923 6 L 82.243 14.28 L 98.803 69.84 L 99.763 69.84 L 114.883 25.2 L 108.763 6 L 121.363 6 L 123.283 15.48 L 140.083 69.84 L 141.043 69.84 L 159.643 15 L 161.563 6 L 173.083 6 Z " fill="rgb(255,255,255)"/><path d=" M 173.083 6 L 146.443 83.04 L 133.483 83.04 L 119.923 41.64 L 119.083 41.64 L 105.043 83.04 L 91.963 83.04 L 68.683 6 L 80.923 6 L 82.243 14.28 L 98.803 69.84 L 99.763 69.84 L 114.883 25.2 L 108.763 6 L 121.363 6 L 123.283 15.48 L 140.083 69.84 L 141.043 69.84 L 159.643 15 L 161.563 6 L 173.083 6 Z " fill="rgb(255,255,255)" mask="url(#_mask_mzKNz47D7ysd2y8DvnrlJGzkrZmOmWwQ)" vector-effect="non-scaling-stroke" stroke-width="4" stroke="rgb(0,0,0)" stroke-linejoin="miter" stroke-linecap="square" stroke-miterlimit="3"/><path d=" M 37.357 6 L 37.357 6 Q 48.849 6 57.643 11.159 L 57.643 11.159 L 55.415 21.83 L 54.243 22.182 L 54.243 22.182 Q 46.386 16.084 36.888 16.084 L 36.888 16.084 L 36.888 16.084 Q 26.569 16.084 21.117 23.061 L 21.117 23.061 L 21.117 23.061 Q 15.664 30.038 15.664 43.875 L 15.664 43.875 L 15.664 43.875 Q 15.664 58.064 21.175 65.451 L 21.175 65.451 L 21.175 65.451 Q 26.687 72.838 36.888 72.838 L 36.888 72.838 L 36.888 72.838 Q 41.813 72.838 46.679 71.138 L 46.679 71.138 L 46.679 71.138 Q 51.546 69.438 55.65 66.389 L 55.65 66.389 L 56.822 67.093 L 55.884 78.115 L 55.884 78.115 Q 45.8 83.04 35.95 83.04 L 35.95 83.04 L 35.95 83.04 Q 20.12 83.04 11.56 73.19 L 11.56 73.19 L 11.56 73.19 Q 3 63.34 3 45.165 L 3 45.165 L 3 45.165 Q 3 26.403 11.97 16.202 L 11.97 16.202 L 11.97 16.202 Q 20.941 6 37.357 6 L 37.357 6 Z " fill="rgb(255,255,255)" vector-effect="non-scaling-stroke" stroke-width="2" stroke="rgb(0,0,0)" stroke-linejoin="miter" stroke-linecap="square" stroke-miterlimit="3"/></g></svg>