<?xml version="1.0" encoding="UTF-8" standalone="no"?><!-- Generator: Gravit.io --><svg xmlns="http://www.w3.org/2000/svg" xmlns:xlink="http://www.w3.org/1999/xlink" style="isolation:isolate" viewBox="0 0 341.939 101" width="341.939pt" height="101pt"><defs><clipPath id="_clipPath_gUp7frpIODxmhDQEkEqSTi8E3K3EE2yI"><rect width="341.939" height="101"/></clipPath></defs><g clip-path="url(#_clipPath_gUp7frpIODxmhDQEkEqSTi8E3K3EE2yI)"><mask id="_mask_mmo7KUyeNAQ5w024TOSgAxg3Tgx831HT" x="-200%" y="-200%" width="400%" height="400%"><rect x="-200%" y="-200%" width="400%" height="400%" style="fill:white;"/><path d=" M 249.689 57.08 L 238.464 89.541 L 233.003 89.541 L 227.29 72.097 L 226.936 72.097 L 221.02 89.541 L 215.509 89.541 L 205.7 57.08 L 210.857 57.08 L 211.413 60.569 L 218.391 83.979 L 218.796 83.979 L 225.166 65.17 L 222.588 57.08 L 227.897 57.08 L 228.706 61.075 L 235.784 83.979 L 236.189 83.979 L 244.026 60.872 L 244.835 57.08 L 249.689 57.08 Z " fill="black" stroke="none"/></mask><path d=" M 249.689 57.08 L 238.464 89.541 L 233.003 89.541 L 227.29 72.097 L 226.936 72.097 L 221.02 89.541 L 215.509 89.541 L 205.7 57.08 L 210.857 57.08 L 211.413 60.569 L 218.391 83.979 L 218.796 83.979 L 225.166 65.17 L 222.588 57.08 L 227.897 57.08 L 228.706 61.075 L 235.784 83.979 L 236.189 83.979 L 244.026 60.872 L 244.835 57.08 L 249.689 57.08 Z " fill="rgb(255,255,255)"/><path d=" M 249.689 57.08 L 238.464 89.541 L 233.003 89.541 L 227.29 72.097 L 226.936 72.097 L 221.02 89.541 L 215.509 89.541 L 205.7 57.08 L 210.857 57.08 L 211.413 60.569 L 218.391 83.979 L 218.796 83.979 L 225.166 65.17 L 222.588 57.08 L 227.897 57.08 L 228.706 61.075 L 235.784 83.979 L 236.189 83.979 L 244.026 60.872 L 244.835 57.08 L 249.689 57.08 Z " fill="rgb(255,255,255)" mask="url(#_mask_mmo7KUyeNAQ5w024TOSgAxg3Tgx831HT)" vector-effect="non-scaling-stroke" stroke-width="1.4" stroke="rgb(0,0,0)" stroke-linejoin="miter" stroke-linecap="square" stroke-miterlimit="3"/><mask id="_mask_WKPJpDoyYuManvmkS36iWDbbyCb2NKbJ" x="-200%" y="-200%" width="400%" height="400%"><rect x="-200%" y="-200%" width="400%" height="400%" style="fill:white;"/><path d=" M 259.7 57.08 L 259.397 79.327 L 259.649 89.541 L 254.34 89.541 L 254.694 79.782 L 254.34 57.08 L 259.7 57.08 Z " fill="black" stroke="none"/></mask><path d=" M 259.7 57.08 L 259.397 79.327 L 259.649 89.541 L 254.34 89.541 L 254.694 79.782 L 254.34 57.08 L 259.7 57.08 Z " fill="rgb(255,255,255)"/><path d=" M 259.7 57.08 L 259.397 79.327 L 259.649 89.541 L 254.34 89.541 L 254.694 79.782 L 254.34 57.08 L 259.7 57.08 Z " fill="rgb(255,255,255)" mask="url(#_mask_WKPJpDoyYuManvmkS36iWDbbyCb2NKbJ)" vector-effect="non-scaling-stroke" stroke-width="1.4" stroke="rgb(0,0,0)" stroke-linejoin="miter" stroke-linecap="square" stroke-miterlimit="3"/><mask id="_mask_ygC7GqZmRN4mmyhZqFHPKDdeZk8RowXN" x="-200%" y="-200%" width="400%" height="400%"><rect x="-200%" y="-200%" width="400%" height="400%" style="fill:white;"/><path d=" M 306.419 85.344 L 314.256 85.091 L 314.56 85.546 L 314.206 89.541 L 295.043 89.541 L 295.397 79.782 L 295.043 57.08 L 314.307 57.08 L 314.61 57.535 L 314.206 61.53 L 306.52 61.327 L 300.352 61.378 L 300.2 70.833 L 306.065 70.934 L 311.425 70.782 L 311.779 71.187 L 311.374 75.181 L 305.661 75.03 L 300.149 75.131 L 300.099 79.327 L 300.251 85.294 L 306.419 85.344 Z " fill="black" stroke="none"/></mask><path d=" M 306.419 85.344 L 314.256 85.091 L 314.56 85.546 L 314.206 89.541 L 295.043 89.541 L 295.397 79.782 L 295.043 57.08 L 314.307 57.08 L 314.61 57.535 L 314.206 61.53 L 306.52 61.327 L 300.352 61.378 L 300.2 70.833 L 306.065 70.934 L 311.425 70.782 L 311.779 71.187 L 311.374 75.181 L 305.661 75.03 L 300.149 75.131 L 300.099 79.327 L 300.251 85.294 L 306.419 85.344 Z " fill="rgb(255,255,255)"/><path d=" M 306.419 85.344 L 314.256 85.091 L 314.56 85.546 L 314.206 89.541 L 295.043 89.541 L 295.397 79.782 L 295.043 57.08 L 314.307 57.08 L 314.61 57.535 L 314.206 61.53 L 306.52 61.327 L 300.352 61.378 L 300.2 70.833 L 306.065 70.934 L 311.425 70.782 L 311.779 71.187 L 311.374 75.181 L 305.661 75.03 L 300.149 75.131 L 300.099 79.327 L 300.251 85.294 L 306.419 85.344 Z " fill="rgb(255,255,255)" mask="url(#_mask_ygC7GqZmRN4mmyhZqFHPKDdeZk8RowXN)" vector-effect="non-scaling-stroke" stroke-width="1.4" stroke="rgb(0,0,0)" stroke-linejoin="miter" stroke-linecap="square" stroke-miterlimit="3"/><path d=" M 330.922 57.08 L 330.922 57.08 Q 334.677 57.08 338.432 58.661 L 338.432 58.661 L 337.592 63.305 L 336.801 63.602 L 336.801 63.602 Q 335.22 62.466 333.541 61.823 L 333.541 61.823 L 333.541 61.823 Q 331.861 61.181 330.329 61.181 L 330.329 61.181 L 330.329 61.181 Q 327.908 61.181 326.475 62.515 L 326.475 62.515 L 326.475 62.515 Q 325.042 63.849 325.042 65.628 L 325.042 65.628 L 325.042 65.628 Q 325.042 67.357 326.475 68.469 L 326.475 68.469 L 326.475 68.469 Q 327.908 69.58 330.971 71.013 L 330.971 71.013 L 330.971 71.013 Q 333.639 72.298 335.295 73.335 L 335.295 73.335 L 335.295 73.335 Q 336.95 74.373 338.135 76.077 L 338.135 76.077 L 338.135 76.077 Q 339.321 77.782 339.321 80.153 L 339.321 80.153 L 339.321 80.153 Q 339.321 82.723 337.913 84.872 L 337.913 84.872 L 337.913 84.872 Q 336.505 87.021 333.961 88.281 L 333.961 88.281 L 333.961 88.281 Q 331.416 89.541 328.155 89.541 L 328.155 89.541 L 328.155 89.541 Q 325.981 89.541 323.659 88.997 L 323.659 88.997 L 323.659 88.997 Q 321.337 88.454 319.262 87.416 L 319.262 87.416 L 319.904 82.377 L 320.546 82.08 L 320.546 82.08 Q 322.374 83.81 324.573 84.674 L 324.573 84.674 L 324.573 84.674 Q 326.772 85.539 328.649 85.539 L 328.649 85.539 L 328.649 85.539 Q 331.218 85.539 332.75 84.18 L 332.75 84.18 L 332.75 84.18 Q 334.282 82.821 334.282 80.944 L 334.282 80.944 L 334.282 80.944 Q 334.282 79.066 332.799 77.905 L 332.799 77.905 L 332.799 77.905 Q 331.317 76.744 328.254 75.311 L 328.254 75.311 L 328.254 75.311 Q 325.635 74.076 324.005 73.063 L 324.005 73.063 L 324.005 73.063 Q 322.374 72.051 321.213 70.371 L 321.213 70.371 L 321.213 70.371 Q 320.052 68.691 320.052 66.319 L 320.052 66.319 L 320.052 66.319 Q 320.052 63.75 321.436 61.626 L 321.436 61.626 L 321.436 61.626 Q 322.819 59.501 325.29 58.291 L 325.29 58.291 L 325.29 58.291 Q 327.76 57.08 330.922 57.08 L 330.922 57.08 Z " fill="rgb(255,255,255)" vector-effect="non-scaling-stroke" stroke-width="0.7" stroke="rgb(0,0,0)" stroke-linejoin="miter" stroke-linecap="square" stroke-miterlimit="3"/><path d=" M 224.793 8.501 L 224.793 8.501 Q 231.18 8.501 236.067 11.368 L 236.067 11.368 L 234.829 17.298 L 234.177 17.494 L 234.177 17.494 Q 229.811 14.105 224.533 14.105 L 224.533 14.105 L 224.533 14.105 Q 218.798 14.105 215.768 17.982 L 215.768 17.982 L 215.768 17.982 Q 212.738 21.86 212.738 29.549 L 212.738 29.549 L 212.738 29.549 Q 212.738 37.434 215.801 41.54 L 215.801 41.54 L 215.801 41.54 Q 218.863 45.645 224.533 45.645 L 224.533 45.645 L 224.533 45.645 Q 227.27 45.645 229.974 44.7 L 229.974 44.7 L 229.974 44.7 Q 232.678 43.755 234.959 42.061 L 234.959 42.061 L 235.611 42.452 L 235.089 48.577 L 235.089 48.577 Q 229.485 51.314 224.011 51.314 L 224.011 51.314 L 224.011 51.314 Q 215.214 51.314 210.457 45.84 L 210.457 45.84 L 210.457 45.84 Q 205.7 40.367 205.7 30.266 L 205.7 30.266 L 205.7 30.266 Q 205.7 19.84 210.685 14.17 L 210.685 14.17 L 210.685 14.17 Q 215.67 8.501 224.793 8.501 L 224.793 8.501 Z " fill="rgb(255,255,255)" vector-effect="non-scaling-stroke" stroke-width="0.7" stroke="rgb(0,0,0)" stroke-linejoin="miter" stroke-linecap="square" stroke-miterlimit="3"/><mask id="_mask_YJPdphGtv2AfdKhyzCOnuK2REswbZSHk" x="-200%" y="-200%" width="400%" height="400%"><rect x="-200%" y="-200%" width="400%" height="400%" style="fill:white;"/><path d=" M 171.583 10.501 L 144.943 87.541 L 131.983 87.541 L 118.423 46.141 L 117.583 46.141 L 103.543 87.541 L 90.463 87.541 L 67.183 10.501 L 79.423 10.501 L 80.743 18.781 L 97.303 74.341 L 98.263 74.341 L 113.383 29.701 L 107.263 10.501 L 119.863 10.501 L 121.783 19.981 L 138.583 74.341 L 139.543 74.341 L 158.143 19.501 L 160.063 10.501 L 171.583 10.501 Z " fill="black" stroke="none"/></mask><path d=" M 171.583 10.501 L 144.943 87.541 L 131.983 87.541 L 118.423 46.141 L 117.583 46.141 L 103.543 87.541 L 90.463 87.541 L 67.183 10.501 L 79.423 10.501 L 80.743 18.781 L 97.303 74.341 L 98.263 74.341 L 113.383 29.701 L 107.263 10.501 L 119.863 10.501 L 121.783 19.981 L 138.583 74.341 L 139.543 74.341 L 158.143 19.501 L 160.063 10.501 L 171.583 10.501 Z " fill="rgb(255,255,255)"/><path d=" M 171.583 10.501 L 144.943 87.541 L 131.983 87.541 L 118.423 46.141 L 117.583 46.141 L 103.543 87.541 L 90.463 87.541 L 67.183 10.501 L 79.423 10.501 L 80.743 18.781 L 97.303 74.341 L 98.263 74.341 L 113.383 29.701 L 107.263 10.501 L 119.863 10.501 L 121.783 19.981 L 138.583 74.341 L 139.543 74.341 L 158.143 19.501 L 160.063 10.501 L 171.583 10.501 Z " fill="rgb(255,255,255)" mask="url(#_mask_YJPdphGtv2AfdKhyzCOnuK2REswbZSHk)" vector-effect="non-scaling-stroke" stroke-width="2" stroke="rgb(0,0,0)" stroke-linejoin="miter" stroke-linecap="square" stroke-miterlimit="3"/><path d=" M 35.857 10.501 L 35.857 10.501 Q 47.349 10.501 56.143 15.66 L 56.143 15.66 L 53.915 26.331 L 52.743 26.683 L 52.743 26.683 Q 44.886 20.585 35.388 20.585 L 35.388 20.585 L 35.388 20.585 Q 25.069 20.585 19.617 27.562 L 19.617 27.562 L 19.617 27.562 Q 14.164 34.539 14.164 48.376 L 14.164 48.376 L 14.164 48.376 Q 14.164 62.564 19.675 69.952 L 19.675 69.952 L 19.675 69.952 Q 25.187 77.339 35.388 77.339 L 35.388 77.339 L 35.388 77.339 Q 40.313 77.339 45.179 75.639 L 45.179 75.639 L 45.179 75.639 Q 50.046 73.939 54.15 70.89 L 54.15 70.89 L 55.322 71.593 L 54.384 82.616 L 54.384 82.616 Q 44.3 87.541 34.45 87.541 L 34.45 87.541 L 34.45 87.541 Q 18.62 87.541 10.06 77.691 L 10.06 77.691 L 10.06 77.691 Q 1.5 67.841 1.5 49.666 L 1.5 49.666 L 1.5 49.666 Q 1.5 30.904 10.47 20.702 L 10.47 20.702 L 10.47 20.702 Q 19.441 10.501 35.857 10.501 L 35.857 10.501 Z " fill="rgb(255,255,255)" vector-effect="non-scaling-stroke" stroke-width="1" stroke="rgb(0,0,0)" stroke-linejoin="miter" stroke-linecap="square" stroke-miterlimit="3"/><mask id="_mask_2J4HdkrfSyHcD1IGpAdp7dj20asWIYBp" x="-200%" y="-200%" width="400%" height="400%"><rect x="-200%" y="-200%" width="400%" height="400%" style="fill:white;"/><path d=" M 264.476 8.501 L 278.28 51.314 L 271.211 51.314 L 270.211 46.513 L 268.344 40.578 L 259.274 40.378 L 251.072 40.578 L 249.071 46.179 L 248.004 51.314 L 241.135 51.314 L 256.407 8.501 L 264.476 8.501 Z  M 258.387 35.109 L 265.256 34.976 L 259.12 15.236 L 258.654 15.236 L 251.651 34.976 L 258.387 35.109 Z " fill-rule="evenodd" fill="black" stroke="none"/></mask><path d=" M 264.476 8.501 L 278.28 51.314 L 271.211 51.314 L 270.211 46.513 L 268.344 40.578 L 259.274 40.378 L 251.072 40.578 L 249.071 46.179 L 248.004 51.314 L 241.135 51.314 L 256.407 8.501 L 264.476 8.501 Z  M 258.387 35.109 L 265.256 34.976 L 259.12 15.236 L 258.654 15.236 L 251.651 34.976 L 258.387 35.109 Z " fill-rule="evenodd" fill="rgb(255,255,255)"/><path d=" M 264.476 8.501 L 278.28 51.314 L 271.211 51.314 L 270.211 46.513 L 268.344 40.578 L 259.274 40.378 L 251.072 40.578 L 249.071 46.179 L 248.004 51.314 L 241.135 51.314 L 256.407 8.501 L 264.476 8.501 Z  M 258.387 35.109 L 265.256 34.976 L 259.12 15.236 L 258.654 15.236 L 251.651 34.976 L 258.387 35.109 Z " fill-rule="evenodd" fill="rgb(255,255,255)" mask="url(#_mask_2J4HdkrfSyHcD1IGpAdp7dj20asWIYBp)" vector-effect="non-scaling-stroke" stroke-width="1.4" stroke="rgb(0,0,0)" stroke-linejoin="miter" stroke-linecap="square" stroke-miterlimit="3"/><mask id="_mask_p9H1Y1TdqIRBIFPaPGAGVC9kjBfqDkBo" x="-200%" y="-200%" width="400%" height="400%"><rect x="-200%" y="-200%" width="400%" height="400%" style="fill:white;"/><path d=" M 309.562 8.501 L 294.424 51.314 L 286.288 51.314 L 272.417 8.501 L 279.486 8.501 L 280.487 13.369 L 290.29 44.646 L 290.757 44.646 L 301.627 13.702 L 302.694 8.501 L 309.562 8.501 Z " fill="black" stroke="none"/></mask><path d=" M 309.562 8.501 L 294.424 51.314 L 286.288 51.314 L 272.417 8.501 L 279.486 8.501 L 280.487 13.369 L 290.29 44.646 L 290.757 44.646 L 301.627 13.702 L 302.694 8.501 L 309.562 8.501 Z " fill="rgb(255,255,255)"/><path d=" M 309.562 8.501 L 294.424 51.314 L 286.288 51.314 L 272.417 8.501 L 279.486 8.501 L 280.487 13.369 L 290.29 44.646 L 290.757 44.646 L 301.627 13.702 L 302.694 8.501 L 309.562 8.501 Z " fill="rgb(255,255,255)" mask="url(#_mask_p9H1Y1TdqIRBIFPaPGAGVC9kjBfqDkBo)" vector-effect="non-scaling-stroke" stroke-width="1.4" stroke="rgb(0,0,0)" stroke-linejoin="miter" stroke-linecap="square" stroke-miterlimit="3"/><mask id="_mask_UAMnqcMEAeilfU3dnaXcoHUgmBTepJ60" x="-200%" y="-200%" width="400%" height="400%"><rect x="-200%" y="-200%" width="400%" height="400%" style="fill:white;"/><path d=" M 326.034 8.501 L 339.839 51.314 L 332.77 51.314 L 331.769 46.513 L 329.902 40.578 L 320.833 40.378 L 312.63 40.578 L 310.629 46.179 L 309.562 51.314 L 302.694 51.314 L 317.965 8.501 L 326.034 8.501 Z  M 321.3 35.109 L 328.168 34.976 L 322.033 15.236 L 321.566 15.236 L 314.564 34.976 L 321.3 35.109 Z " fill-rule="evenodd" fill="black" stroke="none"/></mask><path d=" M 326.034 8.501 L 339.839 51.314 L 332.77 51.314 L 331.769 46.513 L 329.902 40.578 L 320.833 40.378 L 312.63 40.578 L 310.629 46.179 L 309.562 51.314 L 302.694 51.314 L 317.965 8.501 L 326.034 8.501 Z  M 321.3 35.109 L 328.168 34.976 L 322.033 15.236 L 321.566 15.236 L 314.564 34.976 L 321.3 35.109 Z " fill-rule="evenodd" fill="rgb(255,255,255)"/><path d=" M 326.034 8.501 L 339.839 51.314 L 332.77 51.314 L 331.769 46.513 L 329.902 40.578 L 320.833 40.378 L 312.63 40.578 L 310.629 46.179 L 309.562 51.314 L 302.694 51.314 L 317.965 8.501 L 326.034 8.501 Z  M 321.3 35.109 L 328.168 34.976 L 322.033 15.236 L 321.566 15.236 L 314.564 34.976 L 321.3 35.109 Z " fill-rule="evenodd" fill="rgb(255,255,255)" mask="url(#_mask_UAMnqcMEAeilfU3dnaXcoHUgmBTepJ60)" vector-effect="non-scaling-stroke" stroke-width="1.4" stroke="rgb(0,0,0)" stroke-linejoin="miter" stroke-linecap="square" stroke-miterlimit="3"/><mask id="_mask_OxQglaqiAkiFhY58MFbID2jhsez3j813" x="-200%" y="-200%" width="400%" height="400%"><rect x="-200%" y="-200%" width="400%" height="400%" style="fill:white;"/><path d=" M 285.538 57.501 L 285.638 81.4 L 285.234 81.4 L 269.913 57.08 L 264.402 57.08 L 264.605 79.934 L 264.352 89.541 L 269.105 89.541 L 268.953 78.67 L 269.003 65.221 L 269.357 65.221 L 284.627 89.541 L 290.239 89.541 L 290.088 79.833 L 290.39 57.08 L 290.391 57.08 L 290.391 57.08 L 290.39 57.08 L 289.004 57.08 L 288.988 57.081 L 288.988 57.08 L 285.537 57.08 L 285.537 57.333 L 285.537 57.333 L 285.537 57.335 L 285.537 57.501 L 285.538 57.501 Z " fill-rule="evenodd" fill="black" stroke="none"/></mask><path d=" M 285.538 57.501 L 285.638 81.4 L 285.234 81.4 L 269.913 57.08 L 264.402 57.08 L 264.605 79.934 L 264.352 89.541 L 269.105 89.541 L 268.953 78.67 L 269.003 65.221 L 269.357 65.221 L 284.627 89.541 L 290.239 89.541 L 290.088 79.833 L 290.39 57.08 L 290.391 57.08 L 290.391 57.08 L 290.39 57.08 L 289.004 57.08 L 288.988 57.081 L 288.988 57.08 L 285.537 57.08 L 285.537 57.333 L 285.537 57.333 L 285.537 57.335 L 285.537 57.501 L 285.538 57.501 Z " fill-rule="evenodd" fill="rgb(255,255,255)"/><path d=" M 285.538 57.501 L 285.638 81.4 L 285.234 81.4 L 269.913 57.08 L 264.402 57.08 L 264.605 79.934 L 264.352 89.541 L 269.105 89.541 L 268.953 78.67 L 269.003 65.221 L 269.357 65.221 L 284.627 89.541 L 290.239 89.541 L 290.088 79.833 L 290.39 57.08 L 290.391 57.08 L 290.391 57.08 L 290.39 57.08 L 289.004 57.08 L 288.988 57.081 L 288.988 57.08 L 285.537 57.08 L 285.537 57.333 L 285.537 57.333 L 285.537 57.335 L 285.537 57.501 L 285.538 57.501 Z " fill-rule="evenodd" fill="rgb(255,255,255)" mask="url(#_mask_OxQglaqiAkiFhY58MFbID2jhsez3j813)" vector-effect="non-scaling-stroke" stroke-width="1.4" stroke="rgb(0,0,0)" stroke-linejoin="miter" stroke-linecap="square" stroke-miterlimit="3"/><mask id="_mask_6M9EpGKK6JGS9ILAyBMd6cmmqOXQ9oCQ" x="-200%" y="-200%" width="400%" height="400%"><rect x="-200%" y="-200%" width="400%" height="400%" style="fill:white;"/><path d=" M 182.055 98 L 182.785 32.891 L 182.177 3 L 194.945 3 L 194.094 31.559 L 194.945 98 L 182.055 98 Z " fill="black" stroke="none"/></mask><path d=" M 182.055 98 L 182.785 32.891 L 182.177 3 L 194.945 3 L 194.094 31.559 L 194.945 98 L 182.055 98 Z " fill="rgb(255,255,255)"/><path d=" M 182.055 98 L 182.785 32.891 L 182.177 3 L 194.945 3 L 194.094 31.559 L 194.945 98 L 182.055 98 Z " fill="rgb(255,255,255)" mask="url(#_mask_6M9EpGKK6JGS9ILAyBMd6cmmqOXQ9oCQ)" vector-effect="non-scaling-stroke" stroke-width="2" stroke="rgb(0,0,0)" stroke-linejoin="miter" stroke-linecap="square" stroke-miterlimit="3"/></g></svg>