<?xml version="1.0" encoding="UTF-8" standalone="no"?><!-- Generator: Gravit.io --><svg xmlns="http://www.w3.org/2000/svg" xmlns:xlink="http://www.w3.org/1999/xlink" style="isolation:isolate" viewBox="0 0 338.339 95" width="338.339pt" height="95pt"><defs><clipPath id="_clipPath_wf2XFBk7z5KGdiUpYFjJn4V7OXnxMiAC"><rect width="338.339" height="95"/></clipPath></defs><g clip-path="url(#_clipPath_wf2XFBk7z5KGdiUpYFjJn4V7OXnxMiAC)"><path d=" M 248.189 52.079 L 236.964 84.54 L 231.503 84.54 L 225.79 67.096 L 225.436 67.096 L 219.52 84.54 L 214.009 84.54 L 204.2 52.079 L 209.357 52.079 L 209.913 55.568 L 216.891 78.978 L 217.296 78.978 L 223.666 60.169 L 221.088 52.079 L 226.397 52.079 L 227.206 56.074 L 234.284 78.978 L 234.689 78.978 L 242.526 55.871 L 243.335 52.079 L 248.189 52.079 Z " fill="rgb(0,0,0)"/><path d=" M 258.2 52.079 L 257.897 74.327 L 258.149 84.54 L 252.84 84.54 L 253.194 74.782 L 252.84 52.079 L 258.2 52.079 Z " fill="rgb(0,0,0)"/><path d=" M 304.919 80.343 L 312.756 80.091 L 313.06 80.546 L 312.706 84.54 L 293.543 84.54 L 293.897 74.782 L 293.543 52.079 L 312.807 52.079 L 313.11 52.534 L 312.706 56.529 L 305.02 56.327 L 298.852 56.377 L 298.7 65.832 L 304.565 65.933 L 309.925 65.782 L 310.279 66.186 L 309.874 70.18 L 304.161 70.029 L 298.649 70.13 L 298.599 74.327 L 298.751 80.293 L 304.919 80.343 Z " fill="rgb(0,0,0)"/><path d=" M 329.422 52.079 L 329.422 52.079 Q 333.177 52.079 336.932 53.66 L 336.932 53.66 L 336.092 58.305 L 335.301 58.601 L 335.301 58.601 Q 333.72 57.465 332.041 56.822 L 332.041 56.822 L 332.041 56.822 Q 330.361 56.18 328.829 56.18 L 328.829 56.18 L 328.829 56.18 Q 326.408 56.18 324.975 57.514 L 324.975 57.514 L 324.975 57.514 Q 323.542 58.848 323.542 60.627 L 323.542 60.627 L 323.542 60.627 Q 323.542 62.356 324.975 63.468 L 324.975 63.468 L 324.975 63.468 Q 326.408 64.579 329.471 66.012 L 329.471 66.012 L 329.471 66.012 Q 332.139 67.297 333.795 68.334 L 333.795 68.334 L 333.795 68.334 Q 335.45 69.372 336.635 71.076 L 336.635 71.076 L 336.635 71.076 Q 337.821 72.781 337.821 75.153 L 337.821 75.153 L 337.821 75.153 Q 337.821 77.722 336.413 79.871 L 336.413 79.871 L 336.413 79.871 Q 335.005 82.02 332.461 83.28 L 332.461 83.28 L 332.461 83.28 Q 329.916 84.54 326.655 84.54 L 326.655 84.54 L 326.655 84.54 Q 324.481 84.54 322.159 83.997 L 322.159 83.997 L 322.159 83.997 Q 319.837 83.453 317.762 82.415 L 317.762 82.415 L 318.404 77.376 L 319.046 77.079 L 319.046 77.079 Q 320.874 78.809 323.073 79.673 L 323.073 79.673 L 323.073 79.673 Q 325.272 80.538 327.149 80.538 L 327.149 80.538 L 327.149 80.538 Q 329.718 80.538 331.25 79.179 L 331.25 79.179 L 331.25 79.179 Q 332.782 77.821 332.782 75.943 L 332.782 75.943 L 332.782 75.943 Q 332.782 74.066 331.299 72.905 L 331.299 72.905 L 331.299 72.905 Q 329.817 71.743 326.754 70.311 L 326.754 70.311 L 326.754 70.311 Q 324.135 69.075 322.505 68.063 L 322.505 68.063 L 322.505 68.063 Q 320.874 67.05 319.713 65.37 L 319.713 65.37 L 319.713 65.37 Q 318.552 63.69 318.552 61.319 L 318.552 61.319 L 318.552 61.319 Q 318.552 58.749 319.936 56.625 L 319.936 56.625 L 319.936 56.625 Q 321.319 54.5 323.79 53.29 L 323.79 53.29 L 323.79 53.29 Q 326.26 52.079 329.422 52.079 L 329.422 52.079 Z " fill="rgb(0,0,0)"/><path d=" M 223.293 7.5 L 223.293 7.5 Q 229.68 7.5 234.567 10.367 L 234.567 10.367 L 233.329 16.297 L 232.677 16.493 L 232.677 16.493 Q 228.311 13.104 223.033 13.104 L 223.033 13.104 L 223.033 13.104 Q 217.298 13.104 214.268 16.982 L 214.268 16.982 L 214.268 16.982 Q 211.238 20.859 211.238 28.548 L 211.238 28.548 L 211.238 28.548 Q 211.238 36.433 214.301 40.539 L 214.301 40.539 L 214.301 40.539 Q 217.363 44.644 223.033 44.644 L 223.033 44.644 L 223.033 44.644 Q 225.77 44.644 228.474 43.699 L 228.474 43.699 L 228.474 43.699 Q 231.178 42.754 233.459 41.06 L 233.459 41.06 L 234.111 41.451 L 233.589 47.577 L 233.589 47.577 Q 227.985 50.313 222.511 50.313 L 222.511 50.313 L 222.511 50.313 Q 213.714 50.313 208.957 44.84 L 208.957 44.84 L 208.957 44.84 Q 204.2 39.366 204.2 29.265 L 204.2 29.265 L 204.2 29.265 Q 204.2 18.839 209.185 13.169 L 209.185 13.169 L 209.185 13.169 Q 214.17 7.5 223.293 7.5 L 223.293 7.5 Z " fill="rgb(0,0,0)"/><path d=" M 170.083 7.5 L 143.443 84.54 L 130.483 84.54 L 116.923 43.14 L 116.083 43.14 L 102.043 84.54 L 88.963 84.54 L 65.683 7.5 L 77.923 7.5 L 79.243 15.78 L 95.803 71.34 L 96.763 71.34 L 111.883 26.7 L 105.763 7.5 L 118.363 7.5 L 120.283 16.98 L 137.083 71.34 L 138.043 71.34 L 156.643 16.5 L 158.563 7.5 L 170.083 7.5 Z " fill="rgb(0,0,0)"/><path d=" M 34.357 7.5 L 34.357 7.5 Q 45.849 7.5 54.643 12.659 L 54.643 12.659 L 52.415 23.33 L 51.243 23.682 L 51.243 23.682 Q 43.386 17.584 33.888 17.584 L 33.888 17.584 L 33.888 17.584 Q 23.569 17.584 18.117 24.561 L 18.117 24.561 L 18.117 24.561 Q 12.664 31.538 12.664 45.375 L 12.664 45.375 L 12.664 45.375 Q 12.664 59.564 18.175 66.951 L 18.175 66.951 L 18.175 66.951 Q 23.687 74.338 33.888 74.338 L 33.888 74.338 L 33.888 74.338 Q 38.813 74.338 43.679 72.638 L 43.679 72.638 L 43.679 72.638 Q 48.546 70.938 52.65 67.889 L 52.65 67.889 L 53.822 68.593 L 52.884 79.615 L 52.884 79.615 Q 42.8 84.54 32.95 84.54 L 32.95 84.54 L 32.95 84.54 Q 17.12 84.54 8.56 74.69 L 8.56 74.69 L 8.56 74.69 Q 0 64.84 0 46.665 L 0 46.665 L 0 46.665 Q 0 27.903 8.97 17.702 L 8.97 17.702 L 8.97 17.702 Q 17.941 7.5 34.357 7.5 L 34.357 7.5 Z " fill="rgb(0,0,0)"/><path d=" M 262.976 7.5 L 276.78 50.313 L 269.711 50.313 L 268.711 45.512 L 266.844 39.577 L 257.774 39.377 L 249.572 39.577 L 247.571 45.179 L 246.504 50.313 L 239.635 50.313 L 254.907 7.5 L 262.976 7.5 Z  M 256.887 34.108 L 263.756 33.975 L 257.62 14.235 L 257.154 14.235 L 250.151 33.975 L 256.887 34.108 Z " fill-rule="evenodd" fill="rgb(0,0,0)"/><path d=" M 308.062 7.5 L 292.924 50.313 L 284.788 50.313 L 270.917 7.5 L 277.986 7.5 L 278.987 12.368 L 288.79 43.645 L 289.257 43.645 L 300.127 12.702 L 301.194 7.5 L 308.062 7.5 Z " fill="rgb(0,0,0)"/><path d=" M 324.534 7.5 L 338.339 50.313 L 331.27 50.313 L 330.269 45.512 L 328.402 39.577 L 319.333 39.377 L 311.13 39.577 L 309.129 45.179 L 308.062 50.313 L 301.194 50.313 L 316.465 7.5 L 324.534 7.5 Z  M 319.8 34.108 L 326.668 33.975 L 320.533 14.235 L 320.066 14.235 L 313.064 33.975 L 319.8 34.108 Z " fill-rule="evenodd" fill="rgb(0,0,0)"/><path d=" M 284.038 52.501 L 284.138 76.4 L 283.734 76.4 L 268.413 52.079 L 262.902 52.079 L 263.105 74.933 L 262.852 84.54 L 267.605 84.54 L 267.453 73.669 L 267.503 60.22 L 267.857 60.22 L 283.127 84.54 L 288.739 84.54 L 288.588 74.832 L 288.89 52.079 L 288.891 52.079 L 288.891 52.079 L 288.89 52.079 L 287.504 52.079 L 287.488 52.081 L 287.488 52.079 L 284.037 52.079 L 284.037 52.332 L 284.037 52.332 L 284.037 52.334 L 284.037 52.501 L 284.038 52.501 Z " fill-rule="evenodd" fill="rgb(0,0,0)"/><path d=" M 180.555 94.999 L 181.285 29.89 L 180.677 -0.001 L 193.445 -0.001 L 192.594 28.558 L 193.445 94.999 L 180.555 94.999 Z " fill="rgb(0,0,0)"/></g></svg>